{
    "asset" : {
        "generator" : "Khronos glTF Blender I/O v1.6.16",
        "version" : "2.0"
    },
    "scene" : 0,
    "scenes" : [
        {
            "extras" : {
                "glTF2ExportSettings" : {
                    "export_apply" : 1,
                    "export_extras" : 1,
                    "export_format" : "GLTF_SEPARATE",
                    "export_image_format" : "AUTO",
                    "use_renderable" : 1,
                    "use_selection" : 1,
                    "use_visible" : 1
                }
            },
            "name" : "Scene",
            "nodes" : [
                0,
                1,
                2,
                3,
                4,
                5,
                6,
                7,
                8,
                9
            ]
        }
    ],
    "nodes" : [
        {
            "name" : "Light",
            "rotation" : [
                0.16907575726509094,
                0.7558803558349609,
                -0.27217137813568115,
                0.570947527885437
            ],
            "translation" : [
                4.076245307922363,
                5.903861999511719,
                -1.0054539442062378
            ]
        },
        {
            "name" : "Camera",
            "rotation" : [
                0.483536034822464,
                0.33687159419059753,
                -0.20870360732078552,
                0.7804827094078064
            ],
            "translation" : [
                7.358891487121582,
                4.958309173583984,
                6.925790786743164
            ]
        },
        {
            "mesh" : 0,
            "name" : "Cone001",
            "rotation" : [
                0.7071068286895752,
                0,
                0,
                0.7071067094802856
            ]
        },
        {
            "mesh" : 1,
            "name" : "Cone003",
            "rotation" : [
                0.7071068286895752,
                0,
                0,
                0.7071067094802856
            ]
        },
        {
            "mesh" : 2,
            "name" : "Cone004",
            "rotation" : [
                0.7071068286895752,
                0,
                0,
                0.7071067094802856
            ]
        },
        {
            "mesh" : 3,
            "name" : "Cone005",
            "rotation" : [
                0.7071068286895752,
                0,
                0,
                0.7071067094802856
            ]
        },
        {
            "mesh" : 4,
            "name" : "Cone006",
            "rotation" : [
                0.7071068286895752,
                0,
                0,
                0.7071067094802856
            ]
        },
        {
            "mesh" : 5,
            "name" : "Cone002",
            "rotation" : [
                0.7071068286895752,
                0,
                0,
                0.7071067094802856
            ]
        },
        {
            "mesh" : 6,
            "name" : "Cylinder001",
            "rotation" : [
                0.7071068286895752,
                0,
                0,
                0.7071067094802856
            ]
        },
        {
            "name" : "Christmas Tree.001",
            "rotation" : [
                0.7071068286895752,
                0,
                0,
                0.7071067094802856
            ]
        }
    ],
    "materials" : [
        {
            "doubleSided" : true,
            "name" : "01___Default",
            "pbrMetallicRoughness" : {
                "baseColorFactor" : [
                    0.07450000196695328,
                    0.21570000052452087,
                    0.1647000014781952,
                    1
                ],
                "metallicFactor" : 0,
                "roughnessFactor" : 0.8625631332397461
            }
        },
        {
            "doubleSided" : true,
            "name" : "02___Default",
            "pbrMetallicRoughness" : {
                "baseColorFactor" : [
                    0.3882000148296356,
                    0.2745000123977661,
                    0.20389999449253082,
                    1
                ],
                "metallicFactor" : 0,
                "roughnessFactor" : 0.8333333134651184
            }
        }
    ],
    "meshes" : [
        {
            "name" : "Cone001",
            "primitives" : [
                {
                    "attributes" : {
                        "POSITION" : 0,
                        "NORMAL" : 1,
                        "TEXCOORD_0" : 2
                    },
                    "indices" : 3,
                    "material" : 0
                }
            ]
        },
        {
            "name" : "Cone003",
            "primitives" : [
                {
                    "attributes" : {
                        "POSITION" : 4,
                        "NORMAL" : 5,
                        "TEXCOORD_0" : 6
                    },
                    "indices" : 7,
                    "material" : 0
                }
            ]
        },
        {
            "name" : "Cone004",
            "primitives" : [
                {
                    "attributes" : {
                        "POSITION" : 8,
                        "NORMAL" : 9,
                        "TEXCOORD_0" : 10
                    },
                    "indices" : 11,
                    "material" : 0
                }
            ]
        },
        {
            "name" : "Cone005",
            "primitives" : [
                {
                    "attributes" : {
                        "POSITION" : 12,
                        "NORMAL" : 13,
                        "TEXCOORD_0" : 14
                    },
                    "indices" : 15,
                    "material" : 0
                }
            ]
        },
        {
            "name" : "Cone006",
            "primitives" : [
                {
                    "attributes" : {
                        "POSITION" : 16,
                        "NORMAL" : 17,
                        "TEXCOORD_0" : 18
                    },
                    "indices" : 19,
                    "material" : 0
                }
            ]
        },
        {
            "name" : "Cone002",
            "primitives" : [
                {
                    "attributes" : {
                        "POSITION" : 20,
                        "NORMAL" : 21,
                        "TEXCOORD_0" : 22
                    },
                    "indices" : 23,
                    "material" : 0
                }
            ]
        },
        {
            "name" : "Cylinder001",
            "primitives" : [
                {
                    "attributes" : {
                        "POSITION" : 24,
                        "NORMAL" : 25,
                        "TEXCOORD_0" : 26
                    },
                    "indices" : 27,
                    "material" : 1
                }
            ]
        }
    ],
    "accessors" : [
        {
            "bufferView" : 0,
            "componentType" : 5126,
            "count" : 151,
            "max" : [
                3.2936999797821045,
                3.300100088119507,
                -21.461299896240234
            ],
            "min" : [
                -3.2936999797821045,
                -3.0139999389648438,
                -28.00790023803711
            ],
            "type" : "VEC3"
        },
        {
            "bufferView" : 1,
            "componentType" : 5126,
            "count" : 151,
            "type" : "VEC3"
        },
        {
            "bufferView" : 2,
            "componentType" : 5126,
            "count" : 151,
            "type" : "VEC2"
        },
        {
            "bufferView" : 3,
            "componentType" : 5123,
            "count" : 648,
            "type" : "SCALAR"
        },
        {
            "bufferView" : 4,
            "componentType" : 5126,
            "count" : 151,
            "max" : [
                6.783999919891357,
                6.4679999351501465,
                -13.729100227355957
            ],
            "min" : [
                -6.783999919891357,
                -6.870100021362305,
                -22.160900115966797
            ],
            "type" : "VEC3"
        },
        {
            "bufferView" : 5,
            "componentType" : 5126,
            "count" : 151,
            "type" : "VEC3"
        },
        {
            "bufferView" : 6,
            "componentType" : 5126,
            "count" : 151,
            "type" : "VEC2"
        },
        {
            "bufferView" : 7,
            "componentType" : 5123,
            "count" : 648,
            "type" : "SCALAR"
        },
        {
            "bufferView" : 8,
            "componentType" : 5126,
            "count" : 151,
            "max" : [
                8.659099578857422,
                8.345999717712402,
                -9.391599655151367
            ],
            "min" : [
                -7.908299922943115,
                -8.345999717712402,
                -17.818700790405273
            ],
            "type" : "VEC3"
        },
        {
            "bufferView" : 9,
            "componentType" : 5126,
            "count" : 151,
            "type" : "VEC3"
        },
        {
            "bufferView" : 10,
            "componentType" : 5126,
            "count" : 151,
            "type" : "VEC2"
        },
        {
            "bufferView" : 11,
            "componentType" : 5123,
            "count" : 648,
            "type" : "SCALAR"
        },
        {
            "bufferView" : 12,
            "componentType" : 5126,
            "count" : 151,
            "max" : [
                10.299500465393066,
                10.340299606323242,
                -6.138000011444092
            ],
            "min" : [
                -10.299500465393066,
                -9.71720027923584,
                -15.678000450134277
            ],
            "type" : "VEC3"
        },
        {
            "bufferView" : 13,
            "componentType" : 5126,
            "count" : 151,
            "type" : "VEC3"
        },
        {
            "bufferView" : 14,
            "componentType" : 5126,
            "count" : 151,
            "type" : "VEC2"
        },
        {
            "bufferView" : 15,
            "componentType" : 5123,
            "count" : 648,
            "type" : "SCALAR"
        },
        {
            "bufferView" : 16,
            "componentType" : 5126,
            "count" : 151,
            "max" : [
                11.660300254821777,
                11.596599578857422,
                -2.089900016784668
            ],
            "min" : [
                -12.385499954223633,
                -11.596599578857422,
                -11.306699752807617
            ],
            "type" : "VEC3"
        },
        {
            "bufferView" : 17,
            "componentType" : 5126,
            "count" : 151,
            "type" : "VEC3"
        },
        {
            "bufferView" : 18,
            "componentType" : 5126,
            "count" : 151,
            "type" : "VEC2"
        },
        {
            "bufferView" : 19,
            "componentType" : 5123,
            "count" : 648,
            "type" : "SCALAR"
        },
        {
            "bufferView" : 20,
            "componentType" : 5126,
            "count" : 151,
            "max" : [
                5.017899990081787,
                5.145500183105469,
                -18.073999404907227
            ],
            "min" : [
                -5.339600086212158,
                -5.145500183105469,
                -24.400800704956055
            ],
            "type" : "VEC3"
        },
        {
            "bufferView" : 21,
            "componentType" : 5126,
            "count" : 151,
            "type" : "VEC3"
        },
        {
            "bufferView" : 22,
            "componentType" : 5126,
            "count" : 151,
            "type" : "VEC2"
        },
        {
            "bufferView" : 23,
            "componentType" : 5123,
            "count" : 648,
            "type" : "SCALAR"
        },
        {
            "bufferView" : 24,
            "componentType" : 5126,
            "count" : 154,
            "max" : [
                2,
                1.969599962234497,
                0
            ],
            "min" : [
                -2,
                -1.969599962234497,
                -10
            ],
            "type" : "VEC3"
        },
        {
            "bufferView" : 25,
            "componentType" : 5126,
            "count" : 154,
            "type" : "VEC3"
        },
        {
            "bufferView" : 26,
            "componentType" : 5126,
            "count" : 154,
            "type" : "VEC2"
        },
        {
            "bufferView" : 27,
            "componentType" : 5123,
            "count" : 648,
            "type" : "SCALAR"
        }
    ],
    "bufferViews" : [
        {
            "buffer" : 0,
            "byteLength" : 1812,
            "byteOffset" : 0
        },
        {
            "buffer" : 0,
            "byteLength" : 1812,
            "byteOffset" : 1812
        },
        {
            "buffer" : 0,
            "byteLength" : 1208,
            "byteOffset" : 3624
        },
        {
            "buffer" : 0,
            "byteLength" : 1296,
            "byteOffset" : 4832
        },
        {
            "buffer" : 0,
            "byteLength" : 1812,
            "byteOffset" : 6128
        },
        {
            "buffer" : 0,
            "byteLength" : 1812,
            "byteOffset" : 7940
        },
        {
            "buffer" : 0,
            "byteLength" : 1208,
            "byteOffset" : 9752
        },
        {
            "buffer" : 0,
            "byteLength" : 1296,
            "byteOffset" : 10960
        },
        {
            "buffer" : 0,
            "byteLength" : 1812,
            "byteOffset" : 12256
        },
        {
            "buffer" : 0,
            "byteLength" : 1812,
            "byteOffset" : 14068
        },
        {
            "buffer" : 0,
            "byteLength" : 1208,
            "byteOffset" : 15880
        },
        {
            "buffer" : 0,
            "byteLength" : 1296,
            "byteOffset" : 17088
        },
        {
            "buffer" : 0,
            "byteLength" : 1812,
            "byteOffset" : 18384
        },
        {
            "buffer" : 0,
            "byteLength" : 1812,
            "byteOffset" : 20196
        },
        {
            "buffer" : 0,
            "byteLength" : 1208,
            "byteOffset" : 22008
        },
        {
            "buffer" : 0,
            "byteLength" : 1296,
            "byteOffset" : 23216
        },
        {
            "buffer" : 0,
            "byteLength" : 1812,
            "byteOffset" : 24512
        },
        {
            "buffer" : 0,
            "byteLength" : 1812,
            "byteOffset" : 26324
        },
        {
            "buffer" : 0,
            "byteLength" : 1208,
            "byteOffset" : 28136
        },
        {
            "buffer" : 0,
            "byteLength" : 1296,
            "byteOffset" : 29344
        },
        {
            "buffer" : 0,
            "byteLength" : 1812,
            "byteOffset" : 30640
        },
        {
            "buffer" : 0,
            "byteLength" : 1812,
            "byteOffset" : 32452
        },
        {
            "buffer" : 0,
            "byteLength" : 1208,
            "byteOffset" : 34264
        },
        {
            "buffer" : 0,
            "byteLength" : 1296,
            "byteOffset" : 35472
        },
        {
            "buffer" : 0,
            "byteLength" : 1848,
            "byteOffset" : 36768
        },
        {
            "buffer" : 0,
            "byteLength" : 1848,
            "byteOffset" : 38616
        },
        {
            "buffer" : 0,
            "byteLength" : 1232,
            "byteOffset" : 40464
        },
        {
            "buffer" : 0,
            "byteLength" : 1296,
            "byteOffset" : 41696
        }
    ],
    "buffers" : [
        {
            "byteLength" : 42992,
            "uri" : "ChristmasTree.bin"
        }
    ]
}
